<svg width="41" height="41" viewBox="0 0 41 41" fill="none" xmlns="http://www.w3.org/2000/svg">
<path d="M21.1121 23.1918C19.6179 23.1847 18.1335 22.9505 16.7097 22.4972C15.5923 22.1233 14.594 21.4597 13.8168 20.574C13.0397 19.6882 12.5114 18.6122 12.2861 17.4556C11.7841 15.0384 12.6994 12.4826 14.7952 10.4428C15.0204 10.2236 15.2543 10.0137 15.4965 9.81348C16.5537 8.92832 17.8104 8.31376 19.1582 8.02283C20.506 7.7319 21.9044 7.77335 23.2326 8.1436C24.5064 8.55034 25.6231 9.34132 26.4294 10.408C27.2358 11.4747 27.6923 12.7647 27.7362 14.1012C27.834 15.6776 27.3201 17.231 26.3017 18.4382C25.9164 18.9234 25.4048 19.2931 24.8232 19.5067C24.2416 19.7202 23.6123 19.7694 23.0046 19.6487C22.7538 19.5967 22.5161 19.4946 22.3057 19.3486C22.0953 19.2025 21.9165 19.0155 21.78 18.7988C21.6575 18.5883 21.5788 18.3552 21.5486 18.1135C21.5183 17.8718 21.5372 17.6265 21.604 17.3922C22.1873 15.1884 22.7799 11.8393 22.7859 11.806C22.8012 11.7198 22.8332 11.6374 22.8803 11.5635C22.9274 11.4897 22.9885 11.4259 23.0603 11.3757C23.132 11.3255 23.2129 11.2899 23.2984 11.271C23.3839 11.252 23.4723 11.2501 23.5585 11.2654C23.6448 11.2806 23.7272 11.3127 23.801 11.3597C23.8748 11.4068 23.9387 11.468 23.9889 11.5397C24.0391 11.6115 24.0747 11.6924 24.0936 11.7779C24.1125 11.8634 24.1144 11.9518 24.0992 12.038C24.0745 12.1773 23.4906 15.4757 22.8933 17.7329C22.8722 17.7948 22.864 17.8604 22.8692 17.9256C22.8743 17.9908 22.8927 18.0543 22.9233 18.1122C23.0155 18.2396 23.1546 18.3252 23.3099 18.3502C23.6821 18.4123 24.0641 18.3716 24.4148 18.2323C24.7655 18.0931 25.0715 17.8607 25.2997 17.5602C26.0907 16.6141 26.4869 15.3997 26.4063 14.1692C26.3745 13.1053 26.0143 12.0773 25.375 11.2264C24.7358 10.3754 23.8488 9.74305 22.8359 9.41617C21.72 9.10922 20.5462 9.0784 19.4157 9.32635C18.2852 9.5743 17.2321 10.0936 16.3471 10.8394C16.1331 11.0174 15.9244 11.2034 15.7245 11.398C14.6885 12.406 13.0333 14.4978 13.5913 17.1843C13.7755 18.1066 14.1975 18.9648 14.8154 19.6738C15.4334 20.3828 16.2259 20.9181 17.1144 21.2266C20.2408 22.2239 24.7338 22.3445 27.1003 19.4014C27.2124 19.2681 27.3722 19.1839 27.5456 19.1669C27.719 19.15 27.8921 19.2016 28.0279 19.3106C28.1638 19.4197 28.2515 19.5776 28.2724 19.7506C28.2932 19.9235 28.2455 20.0978 28.1395 20.236C26.389 22.4132 23.7252 23.1918 21.1121 23.1918Z" fill="#D9D9D9"/>
<path d="M18.8307 19.7354C18.126 19.7477 17.4385 19.5168 16.8842 19.0815C15.605 18.0575 15.5696 16.2783 15.9283 15.0671C16.0496 14.6638 16.2116 14.2738 16.4129 13.9039C16.913 12.8947 17.7128 12.0646 18.7027 11.5274C19.3031 11.2159 19.9878 11.1058 20.6556 11.2134C21.3234 11.3209 21.9389 11.6404 22.4111 12.1247C22.8922 12.6518 23.2545 13.276 23.4737 13.9552C23.5288 14.1207 23.5168 14.3012 23.4403 14.458C23.3639 14.6148 23.229 14.7354 23.0646 14.7939C22.9002 14.8523 22.7195 14.844 22.5612 14.7707C22.4028 14.6974 22.2796 14.565 22.2178 14.4018C22.0597 13.9002 21.7971 13.4379 21.4472 13.0453C21.1721 12.7639 20.8126 12.5801 20.4234 12.522C20.0342 12.4639 19.6366 12.5345 19.2913 12.7233C18.5489 13.142 17.9523 13.7777 17.5815 14.5451C17.4257 14.8328 17.3 15.1357 17.2062 15.4491C16.9469 16.325 17.0042 17.4689 17.7188 18.0409C18.5001 18.6688 19.8186 18.4035 20.5606 17.7636C21.1132 17.2657 21.588 16.6878 21.9691 16.049C22.0153 15.9746 22.0757 15.91 22.1468 15.859C22.218 15.8079 22.2985 15.7713 22.3838 15.7514C22.469 15.7314 22.5574 15.7284 22.6438 15.7426C22.7302 15.7568 22.813 15.7879 22.8874 15.834C22.9618 15.8802 23.0264 15.9406 23.0775 16.0117C23.1286 16.0829 23.1651 16.1634 23.1851 16.2487C23.205 16.3339 23.208 16.4223 23.1938 16.5087C23.1796 16.5951 23.1486 16.6779 23.1024 16.7523C22.6506 17.5048 22.0881 18.185 21.4339 18.7702C20.705 19.3852 19.7843 19.7266 18.8307 19.7354Z" fill="#D9D9D9"/>
<path d="M38.2862 40.5305H2.28891C1.75868 40.53 1.25032 40.3191 0.87539 39.9442C0.50046 39.5692 0.289592 39.0609 0.289063 38.5306V13.8658C0.288983 13.7391 0.325026 13.615 0.392968 13.508C0.460909 13.401 0.557933 13.3156 0.672669 13.2618C0.787405 13.208 0.915099 13.1881 1.04079 13.2042C1.16647 13.2204 1.28494 13.2721 1.38231 13.3532L17.7384 26.9468C18.4559 27.5397 19.3575 27.864 20.2882 27.864C21.2189 27.864 22.1206 27.5397 22.838 26.9468L39.1928 13.3525C39.2902 13.2714 39.4088 13.2197 39.5345 13.2036C39.6603 13.1874 39.788 13.2074 39.9028 13.2613C40.0175 13.3152 40.1146 13.4007 40.1824 13.5078C40.2503 13.6148 40.2863 13.739 40.2861 13.8658V38.5306C40.2856 39.0609 40.0747 39.5692 39.6998 39.9442C39.3248 40.3191 38.8165 40.53 38.2862 40.5305ZM1.6223 15.2864V38.5306C1.6223 38.8986 1.92094 39.1973 2.28891 39.1973H38.2862C38.463 39.1973 38.6326 39.127 38.7576 39.002C38.8826 38.877 38.9528 38.7074 38.9528 38.5306V15.2864L23.6887 27.9721C22.7318 28.7628 21.5294 29.1955 20.2881 29.1958C19.0469 29.196 17.8443 28.7638 16.8872 27.9734L1.6223 15.2864Z" fill="#D9D9D9"/>
<path d="M0.956003 14.5325C0.814434 14.5327 0.676453 14.4879 0.562049 14.4045C0.447645 14.3212 0.362759 14.2035 0.319687 14.0687C0.276616 13.9338 0.277596 13.7887 0.322486 13.6545C0.367376 13.5202 0.453845 13.4037 0.569365 13.3219L6.56892 9.06886C6.71318 8.96658 6.89217 8.92581 7.06651 8.9555C7.24084 8.98519 7.39624 9.08292 7.49852 9.22718C7.60079 9.37145 7.64157 9.55044 7.61188 9.72477C7.58219 9.89911 7.48446 10.0545 7.34019 10.1568L1.34064 14.4098C1.22831 14.4897 1.09385 14.5326 0.956003 14.5325ZM39.6185 14.5325C39.4806 14.5326 39.3461 14.4897 39.2338 14.4098L33.2343 10.1568C33.0915 10.054 32.9952 9.89896 32.9662 9.72545C32.9373 9.55194 32.9781 9.37403 33.0798 9.23049C33.1815 9.08695 33.3358 8.98941 33.509 8.95914C33.6823 8.92886 33.8605 8.9683 34.0049 9.06886L40.0044 13.3219C40.1198 13.4036 40.2063 13.52 40.2512 13.6541C40.2961 13.7883 40.2972 13.9332 40.2543 14.068C40.2114 14.2028 40.1267 14.3205 40.0125 14.404C39.8984 14.4874 39.7599 14.5324 39.6185 14.5325ZM26.4468 5.19982C26.3087 5.19994 26.174 5.15707 26.0615 5.07716L22.875 2.81733C22.1583 2.21153 21.2517 1.87656 20.3132 1.87083C19.3748 1.8651 18.4641 2.18899 17.7401 2.786L14.5137 5.07716C14.3694 5.17944 14.1904 5.22022 14.0161 5.19053C13.8417 5.16083 13.6863 5.06311 13.5841 4.91884C13.4818 4.77457 13.441 4.59558 13.4707 4.42125C13.5004 4.24692 13.5981 4.09152 13.7424 3.98924L16.9288 1.72941C17.8834 0.948849 19.08 0.524977 20.3131 0.530572C21.5462 0.536168 22.7388 0.970882 23.6863 1.76007L26.8327 3.98924C26.9483 4.07107 27.0347 4.18756 27.0796 4.32182C27.1245 4.45609 27.1255 4.60116 27.0824 4.73601C27.0393 4.87087 26.9545 4.98852 26.8401 5.0719C26.7257 5.15529 26.5877 5.20009 26.4461 5.19982H26.4468ZM1.38864 40.1705C1.25137 40.1708 1.11737 40.1287 1.00493 40.05C0.892499 39.9712 0.807113 39.8597 0.760437 39.7306C0.713762 39.6015 0.708074 39.4612 0.74415 39.3287C0.780227 39.1963 0.856308 39.0782 0.962003 38.9906L16.1742 26.3516C16.2416 26.2956 16.3193 26.2535 16.4029 26.2276C16.4866 26.2017 16.5745 26.1925 16.6617 26.2006C16.7489 26.2087 16.8336 26.2339 16.9111 26.2747C16.9885 26.3155 17.0572 26.3712 17.1131 26.4386C17.1691 26.5059 17.2112 26.5837 17.2371 26.6673C17.263 26.7509 17.2722 26.8389 17.2641 26.926C17.256 27.0132 17.2308 27.098 17.19 27.1754C17.1492 27.2529 17.0935 27.3216 17.0261 27.3775L1.81394 40.0166C1.69454 40.116 1.54405 40.1705 1.38864 40.1705ZM39.1851 40.1705C39.0297 40.1707 38.8792 40.1162 38.7598 40.0166L23.5476 27.3775C23.4786 27.3221 23.4212 27.2536 23.3789 27.1758C23.3366 27.098 23.3102 27.0126 23.3013 26.9245C23.2923 26.8364 23.301 26.7474 23.3269 26.6627C23.3527 26.578 23.3952 26.4993 23.4518 26.4312C23.5084 26.3631 23.5779 26.307 23.6565 26.2661C23.735 26.2252 23.8209 26.2003 23.9091 26.193C23.9973 26.1856 24.0862 26.1959 24.1704 26.2232C24.2546 26.2506 24.3325 26.2944 24.3996 26.3522L39.6118 38.9913C39.7175 39.0789 39.7936 39.197 39.8296 39.3294C39.8657 39.4618 39.86 39.6022 39.8133 39.7313C39.7667 39.8604 39.6813 39.9719 39.5689 40.0506C39.4564 40.1294 39.3224 40.1708 39.1851 40.1705Z" fill="#D9D9D9"/>
<path d="M33.6194 19.5187C33.4426 19.5187 33.273 19.4485 33.148 19.3235C33.023 19.1985 32.9528 19.0289 32.9528 18.8521V5.20514C32.9508 5.21847 32.9241 5.1998 32.8794 5.1998H7.69465C7.68007 5.19892 7.66546 5.20101 7.65171 5.20594C7.63796 5.21086 7.62536 5.21853 7.61465 5.22847L7.62132 18.8521C7.62132 19.0289 7.55109 19.1985 7.42607 19.3235C7.30106 19.4485 7.1315 19.5187 6.9547 19.5187C6.77791 19.5187 6.60835 19.4485 6.48333 19.3235C6.35832 19.1985 6.28809 19.0289 6.28809 18.8521V5.1998C6.29855 4.83673 6.45244 4.4926 6.71605 4.24273C6.97967 3.99286 7.33154 3.8576 7.69465 3.86657H32.8794C33.2425 3.8576 33.5944 3.99286 33.858 4.24273C34.1216 4.4926 34.2755 4.83673 34.286 5.1998V18.8521C34.286 19.0289 34.2158 19.1985 34.0908 19.3235C33.9657 19.4485 33.7962 19.5187 33.6194 19.5187Z" fill="#D9D9D9"/>
</svg>
