<svg width="40" height="40" viewBox="0 0 342 342" fill="none" xmlns="http://www.w3.org/2000/svg">
<path fill-rule="evenodd" clip-rule="evenodd" d="M327.833 119.613C330.426 118.912 333.19 119.262 335.526 120.587C337.861 121.912 339.579 124.105 340.306 126.689L341.181 130.035C341.623 132.582 341.081 135.202 339.663 137.364C338.244 139.526 336.057 141.068 333.543 141.678C331.03 142.288 328.378 141.92 326.126 140.648C323.874 139.376 322.19 137.296 321.415 134.83C321.177 133.847 320.928 132.866 320.669 131.889C320.329 130.611 320.245 129.279 320.423 127.969C320.601 126.658 321.036 125.396 321.704 124.255C322.372 123.114 323.259 122.116 324.315 121.32C325.371 120.523 326.552 119.943 327.833 119.613ZM326.852 224.87C332.012 227.044 334.422 232.947 332.183 238.041C331.266 240.149 330.306 242.237 329.304 244.306C328.118 246.717 326.031 248.564 323.494 249.449C320.957 250.334 318.173 250.186 315.744 249.038C314.545 248.482 313.469 247.694 312.577 246.719C311.686 245.744 310.997 244.602 310.551 243.359C310.105 242.116 309.91 240.796 309.978 239.477C310.046 238.158 310.375 236.866 310.947 235.675C311.842 233.842 312.695 231.988 313.505 230.134C314.595 227.683 316.605 225.757 319.101 224.773C321.598 223.788 324.381 223.823 326.852 224.87ZM257.216 308.667C259.817 313.568 257.856 319.621 252.866 322.178C251.843 322.711 250.798 323.244 249.753 323.734C247.338 324.915 244.555 325.099 242.006 324.245C239.456 323.392 237.345 321.57 236.129 319.173C235.542 317.99 235.195 316.701 235.11 315.383C235.025 314.065 235.203 312.742 235.634 311.493C236.064 310.244 236.739 309.093 237.618 308.107C238.497 307.12 239.564 306.318 240.756 305.747C241.684 305.3 242.607 304.846 243.528 304.383C245.913 303.16 248.684 302.921 251.243 303.718C253.803 304.515 255.948 306.285 257.216 308.645V308.667ZM295.36 0.333332C296.687 0.393438 297.989 0.714879 299.191 1.27921C300.393 1.84354 301.472 2.63964 302.365 3.6218C303.259 4.60396 303.95 5.75285 304.398 7.0025C304.846 8.25215 305.042 9.57795 304.976 10.9038L301.927 67.5495C301.763 70.2245 300.543 72.725 298.537 74.5028C296.531 76.2806 293.901 77.1905 291.224 77.0331L233.762 74.0282C228.155 73.7298 223.848 68.9987 224.146 63.479C224.445 57.9594 229.242 53.6971 234.85 53.9955L271.757 55.9135C255.84 42.6697 237.403 32.7882 217.558 26.866C193.53 19.6882 168.116 18.4595 143.508 23.2857C94.2763 32.9398 51.761 66.9315 32.2944 113.262C22.6999 136.084 18.962 160.94 21.4204 185.572C26.3883 235.42 57.0914 280.195 101.334 303.488C123.513 315.166 148.205 321.267 173.273 321.262C178.88 321.262 183.443 325.737 183.443 331.278C183.443 336.819 178.88 341.316 173.273 341.316C144.862 341.323 116.876 334.411 91.739 321.177C41.5906 294.75 6.81507 244.029 1.16485 187.554C-1.62488 159.633 2.61146 131.458 13.4887 105.59C35.5566 53.1004 83.7434 14.548 139.521 3.61529C167.416 -1.85961 196.226 -0.469935 223.464 7.66445C245.2 14.1586 265.453 24.8449 283.079 39.1201L284.657 9.83822C284.816 7.15947 286.033 4.65354 288.04 2.87123C290.047 1.08892 292.68 0.176069 295.36 0.333332ZM173.273 80.5708C178.88 80.5708 183.443 85.0462 183.443 90.5872V171.954L220.586 203.325C224.85 206.947 225.34 213.256 221.673 217.475C219.897 219.489 217.404 220.727 214.726 220.927C212.048 221.126 209.399 220.269 207.345 218.541L166.642 184.187C165.534 183.252 164.644 182.087 164.033 180.773C163.422 179.459 163.104 178.028 163.102 176.579V90.5872C163.102 85.0462 167.644 80.5708 173.273 80.5708Z" fill="#D9D9D9"/>
</svg>
