<svg width="41" height="41" viewBox="0 0 41 41" fill="none" xmlns="http://www.w3.org/2000/svg">
<path d="M36.0185 22.4662V21.1329C36.3865 21.1329 36.6851 20.8344 36.6851 20.4662V16.4662C36.6851 16.098 36.3865 15.7995 36.0185 15.7995H32.4185L32.2893 15.2987C31.9946 14.1533 31.5365 13.0563 30.9292 12.0414L30.6625 11.5954L33.2185 9.03496C33.4758 8.77716 33.4758 8.35943 33.2185 8.10163L30.3872 5.26624C30.2614 5.14625 30.0943 5.07932 29.9204 5.07932C29.7466 5.07932 29.5794 5.14625 29.4536 5.26624L26.893 7.8269L26.4472 7.56023C25.4309 6.95265 24.3325 6.4944 23.1857 6.19957L22.6852 6.06937V2.46624C22.6852 2.09804 22.3867 1.79958 22.0185 1.79958H18.0185C17.6503 1.79958 17.3519 2.09804 17.3519 2.46624V6.06623L16.8511 6.19563C15.7056 6.49028 14.6085 6.948 13.5933 7.55476L13.1472 7.8217L10.5872 5.26624C10.4613 5.14532 10.2935 5.0778 10.1189 5.0778C9.94429 5.0778 9.77647 5.14532 9.65054 5.26624L6.81854 8.0975C6.75687 8.15899 6.70794 8.23205 6.67456 8.31249C6.64117 8.39293 6.62399 8.47917 6.62399 8.56626C6.62399 8.65336 6.64117 8.73959 6.67456 8.82003C6.70794 8.90047 6.75687 8.97353 6.81854 9.03503L9.37921 11.5954L9.11254 12.0415C8.50524 13.0564 8.04725 14.1534 7.75268 15.2988L7.62188 15.7995H4.01855C3.65035 15.7995 3.35189 16.098 3.35189 16.4662V20.4662C3.35189 20.8344 3.65035 21.1329 4.01855 21.1329V22.4662C2.91415 22.4662 2.01855 21.5706 2.01855 20.4662V16.4662C2.01855 15.3618 2.91415 14.4662 4.01855 14.4662H6.59794C6.8729 13.5444 7.24478 12.6544 7.70734 11.811L5.87401 9.97769C5.49901 9.60349 5.28835 9.09569 5.28835 8.56623C5.28835 8.03676 5.49901 7.52896 5.87401 7.15503L8.70734 4.32171C9.49667 3.56624 10.7412 3.56624 11.5305 4.32171L13.3633 6.15423C14.2068 5.69217 15.0968 5.32076 16.0185 5.04624V2.46624C16.0185 1.36185 16.9141 0.466248 18.0185 0.466248H22.0185C23.1229 0.466248 24.0185 1.36185 24.0185 2.46624V5.04624C24.9402 5.32104 25.8303 5.69271 26.6737 6.15503L28.507 4.32171C29.2966 3.56624 30.5409 3.56624 31.3305 4.32171L34.1633 7.15423C34.3488 7.33943 34.496 7.55941 34.5964 7.80156C34.6968 8.04371 34.7485 8.30329 34.7484 8.56543C34.7485 8.82762 34.6968 9.08724 34.5964 9.32944C34.496 9.57164 34.3488 9.79165 34.1633 9.97689L32.33 11.8102C32.7921 12.654 33.1639 13.5443 33.4391 14.4662H36.0185C37.1229 14.4662 38.0185 15.3618 38.0185 16.4662V20.4662C38.0185 21.5706 37.1229 22.4662 36.0185 22.4662Z" fill="#D9D9D9"/>
<path d="M29.3522 18.4662H28.0188C28.0188 14.048 24.4371 10.4662 20.0189 10.4662C15.6007 10.4662 12.0189 14.048 12.0189 18.4662H10.6855C10.6855 13.3115 14.8642 9.13287 20.0189 9.13287C25.1732 9.13287 29.3522 13.3115 29.3522 18.4662Z" fill="#D9D9D9"/>
<path d="M20.0188 23.7995C17.8097 23.7995 16.0189 22.0084 16.0189 19.7996C16.0189 17.5904 17.8097 15.7996 20.0188 15.7996C22.2282 15.7996 24.0188 17.5904 24.0188 19.7996C24.0165 22.0079 22.2272 23.7972 20.0188 23.7995ZM20.0188 17.1329C18.5462 17.1329 17.3522 18.3269 17.3522 19.7996C17.3522 21.2722 18.5462 22.4662 20.0188 22.4662C21.4915 22.4662 22.6855 21.2722 22.6855 19.7996C22.6855 18.3269 21.4915 17.1329 20.0188 17.1329ZM31.3522 26.4662C29.143 26.4662 27.3522 24.6751 27.3522 22.4662C27.3522 20.2571 29.143 18.4662 31.3522 18.4662C33.5613 18.4662 35.3521 20.2571 35.3521 22.4662C35.3498 24.6745 33.5605 26.4639 31.3522 26.4662ZM31.3522 19.7996C29.8795 19.7996 28.6855 20.9935 28.6855 22.4662C28.6855 23.9389 29.8795 25.1329 31.3522 25.1329C32.8248 25.1329 34.0188 23.9389 34.0188 22.4662C34.0188 20.9935 32.8248 19.7996 31.3522 19.7996ZM8.68554 26.4662C6.47641 26.4662 4.68555 24.6751 4.68555 22.4662C4.68555 20.2571 6.47641 18.4662 8.68554 18.4662C10.8949 18.4662 12.6855 20.2571 12.6855 22.4662C12.6832 24.6745 10.8939 26.4639 8.68554 26.4662ZM8.68554 19.7996C7.21287 19.7996 6.01888 20.9935 6.01888 22.4662C6.01888 23.9389 7.21287 25.1329 8.68554 25.1329C10.1582 25.1329 11.3522 23.9389 11.3522 22.4662C11.3522 20.9935 10.1582 19.7996 8.68554 19.7996Z" fill="#D9D9D9"/>
<path d="M37.3955 28.1766C36.402 27.4936 35.2241 27.1295 34.0185 27.1328H28.6852C28.3608 27.1357 28.0373 27.1651 27.7177 27.2206C27.291 26.5534 26.7361 25.9776 26.0852 25.5266C25.9876 25.4528 25.8849 25.3861 25.7778 25.3268C24.8452 24.7622 23.7754 24.4645 22.6852 24.4662H17.3519C16.3489 24.4626 15.3614 24.7134 14.4816 25.1951C13.6018 25.6768 12.8586 26.3737 12.3212 27.2206C12.001 27.1651 11.6768 27.1357 11.3519 27.1328H6.01854C4.81371 27.1295 3.63642 27.4931 2.64328 28.1753C1.835 28.7253 1.17335 29.4644 0.715902 30.3284C0.258452 31.1925 0.0190606 32.1552 0.0185547 33.1328V35.7995C0.020888 37.6198 1.08002 39.2729 2.73342 40.0355C3.34372 40.3229 4.01062 40.47 4.68521 40.4661H11.3519V39.1328H5.35188V31.7995H4.01855V39.0659C3.76759 39.0155 3.52377 38.9345 3.29255 38.8247C2.71421 38.5581 2.22421 38.1316 1.88035 37.5956C1.53649 37.0595 1.35312 36.4363 1.35189 35.7995V33.1328C1.35269 32.372 1.53932 31.6229 1.89554 30.9506C2.25176 30.2783 2.7668 29.7032 3.39588 29.2753C4.16771 28.7456 5.08246 28.4634 6.01854 28.4662H11.3519C11.4693 28.4662 11.5825 28.4787 11.6972 28.4865C11.4716 29.1223 11.3549 29.7915 11.3519 30.4661V37.1328C11.3542 38.9729 12.8453 40.4638 14.6852 40.4661H16.6852V29.7995H15.3519V39.1328H14.6852C13.5808 39.1328 12.6852 38.2372 12.6852 37.1328V30.4661C12.6852 27.8886 14.7748 25.7995 17.3519 25.7995H22.6852C23.5429 25.8001 24.3838 26.0375 25.1152 26.4855C25.1828 26.5224 25.2478 26.564 25.3096 26.6099C25.9343 27.0376 26.447 27.6092 26.8044 28.2766C27.1637 28.9505 27.3517 29.7024 27.3518 30.4661V37.1328C27.3518 38.2372 26.4562 39.1328 25.3518 39.1328H24.6852V29.7995H23.3518V40.4661H25.3518C27.192 40.4638 28.6828 38.9729 28.6852 37.1328V30.4661C28.6821 29.7916 28.5655 29.1224 28.3404 28.4865C28.4552 28.4786 28.5685 28.4662 28.6852 28.4662H34.0185C34.9553 28.4636 35.8707 28.7463 36.6429 29.2766C37.2714 29.7046 37.786 30.2796 38.1419 30.9516C38.4978 31.6237 38.6842 32.3724 38.6851 33.1328V35.7995C38.684 36.4384 38.4994 37.0636 38.1535 37.6008C37.8075 38.138 37.3146 38.5646 36.7333 38.8299C36.5057 38.9377 36.2656 39.0169 36.0185 39.0659V31.7995H34.6851V39.1328H28.6852V40.4661H35.3518C36.0223 40.4704 36.6853 40.325 37.2925 40.0406C38.9513 39.2805 40.0158 37.6242 40.0185 35.7995V33.1328C40.018 32.1555 39.7787 31.1932 39.3216 30.3294C38.8645 29.4656 38.2033 28.7266 37.3955 28.1766Z" fill="#D9D9D9"/>
<path d="M17.3516 39.1328H22.6849V40.4661H17.3516V39.1328Z" fill="#D9D9D9"/>
</svg>
