<svg width="41" height="41" viewBox="0 0 41 41" fill="none" xmlns="http://www.w3.org/2000/svg">
<mask id="mask0_129_17" style="mask-type:alpha" maskUnits="userSpaceOnUse" x="0" y="0" width="41" height="41">
<rect x="0.263672" y="0.466248" width="40" height="40" fill="white"/>
</mask>
<g mask="url(#mask0_129_17)">
<path d="M39.7723 27.1555C39.0158 25.876 37.6744 25.4235 36.5046 26.0633L35.4985 26.6094V17.9805C36.333 17.7152 36.9413 16.935 36.9413 16.0066V11.4659C36.9413 10.3268 36.0133 9.39839 34.8746 9.39839H29.1582C31.1 8.57919 32.2855 7.13584 32.3556 5.47403C32.418 4.08529 31.6538 2.83699 30.4293 2.27525C29.6573 1.92417 27.5672 1.39364 24.9078 3.94486C23.6834 5.12295 22.6696 6.59751 21.9911 8.15009C21.3048 6.59751 20.291 5.12295 19.0744 3.94486C16.415 1.38583 14.3249 1.92417 13.5528 2.27525C12.3128 2.83699 11.5563 4.0931 11.6109 5.47403C11.6811 7.13584 12.8665 8.57139 14.8084 9.39839H10.02C8.88137 9.39839 7.95332 10.3268 7.95332 11.4659V16.0066C7.95332 16.9272 8.56162 17.7152 9.39609 17.9805V24.8696L7.64917 25.5717C7.37621 25.1114 6.87709 24.8072 6.29998 24.8072H1.87029C1.00462 24.7994 0.302734 25.5015 0.302734 26.3675V36.9079C0.302734 37.7739 1.00462 38.4761 1.87029 38.4761H6.30778C6.89269 38.4761 7.39961 38.1562 7.67256 37.6803L10.6907 38.7024C11.2054 38.8818 11.6811 38.9598 12.227 38.9598H25.134C25.9217 38.9598 26.6002 38.757 27.2708 38.3279L39.2186 30.6898C40.4664 29.8862 40.4352 28.2712 39.7723 27.1555ZM27.7934 30.799C27.2475 31.0955 26.7405 31.2281 26.1556 31.2281H25.9373L26.023 31.1735C26.9745 30.5572 27.3956 29.4181 27.0759 28.3336C26.7561 27.2492 25.7813 26.5158 24.6505 26.5158H22.6072V18.0741H34.2507V27.2882L27.7934 30.799ZM35.6935 11.4659V16.0066C35.6935 16.4591 35.327 16.8258 34.8746 16.8258H22.6072V10.7169C23.8082 10.99 24.5881 12.051 25.4771 13.2525C26.062 14.0405 26.6625 14.8597 27.4268 15.4605C27.5438 15.5541 27.6764 15.5931 27.8168 15.5931C28.0039 15.5931 28.1833 15.5151 28.3081 15.359C28.5187 15.086 28.4797 14.6959 28.2067 14.4852C27.575 13.9781 27.0447 13.2681 26.491 12.5114C26.023 11.8794 25.5239 11.2006 24.9312 10.6467H34.8824C35.327 10.6467 35.6935 11.0134 35.6935 11.4659ZM25.7657 4.84988C26.8809 3.78882 28.0039 3.22708 28.9788 3.22708C29.3063 3.22708 29.6183 3.2895 29.9146 3.42213C30.6789 3.76542 31.1468 4.55341 31.1078 5.42722C31.0532 6.68333 30.0004 7.799 28.2847 8.39975C26.8497 8.90687 24.9858 9.23455 22.849 9.35938C23.4417 7.71318 24.5023 6.07478 25.7657 4.84988ZM12.8587 5.42722C12.8197 4.55341 13.2877 3.76542 14.052 3.42213C14.3405 3.2895 14.6525 3.22708 14.9878 3.22708C15.9626 3.22708 17.0857 3.78882 18.1931 4.85768C19.4643 6.07478 20.5171 7.71318 21.1176 9.35938C18.9808 9.23455 17.1091 8.90687 15.6819 8.39975C13.9662 7.7912 12.9133 6.68333 12.8587 5.42722ZM9.20112 11.4659C9.20112 11.0134 9.56766 10.6467 10.02 10.6467H19.0432C18.4505 11.2006 17.9591 11.8716 17.4834 12.5114C16.9219 13.2681 16.3994 13.9859 15.7677 14.4852C15.4947 14.6959 15.4557 15.0938 15.6663 15.359C15.7911 15.5151 15.9704 15.5931 16.1576 15.5931C16.2902 15.5931 16.4306 15.5463 16.5476 15.4605C17.3118 14.8519 17.9123 14.0405 18.4972 13.2525C19.3863 12.051 20.1662 10.99 21.3672 10.7169V16.8258H10.02C9.56766 16.8258 9.20112 16.4591 9.20112 16.0066V11.4659ZM10.6439 18.0741H21.3594V26.5236H18.8248C18.4427 26.5236 18.1229 26.4456 17.7876 26.2661L14.0831 24.2922C13.1629 23.8007 12.1724 23.7461 11.2054 24.1362L10.6439 24.3624V18.0741ZM6.30778 37.2278H1.87029C1.69871 37.2278 1.55054 37.0796 1.55054 36.9079V26.3675C1.55054 26.1959 1.69871 26.0477 1.87029 26.0477H6.30778C6.47935 26.0477 6.62753 26.1959 6.62753 26.3675V36.9001C6.62753 37.0796 6.47935 37.2278 6.30778 37.2278ZM38.5479 29.6365L26.6002 37.2824C26.1322 37.5789 25.6799 37.7193 25.134 37.7193H12.2348C11.8215 37.7193 11.4862 37.6647 11.0962 37.5321L7.87533 36.4398V26.8201L11.6733 25.2909C12.2972 25.0412 12.9055 25.0724 13.4982 25.3923L17.2026 27.3662C17.7174 27.6393 18.2321 27.7719 18.8248 27.7719H24.6505C25.2354 27.7719 25.7111 28.1308 25.8749 28.6925C26.0386 29.2542 25.8281 29.816 25.3368 30.1281L24.1124 30.9161C23.777 31.1345 23.4495 31.2281 23.0439 31.2281H17.5614C17.2182 31.2281 16.9375 31.509 16.9375 31.8523C16.9375 32.1956 17.2182 32.4764 17.5614 32.4764H26.1478C26.9433 32.4764 27.653 32.2892 28.3783 31.8991L37.0895 27.1555C37.9708 26.6718 38.5791 27.6002 38.6882 27.7875C39.0002 28.2946 39.2108 29.2152 38.5479 29.6365Z" fill="#D9D9D9"/>
<path d="M25.1339 38.9988H12.227C11.6706 38.9988 11.1929 38.9188 10.6778 38.7392L7.69004 37.7275C7.39798 38.2142 6.87125 38.5152 6.30771 38.5152H1.87022C0.984355 38.5152 0.263672 37.7942 0.263672 36.9079V26.3675C0.263672 25.9362 0.431969 25.5317 0.737525 25.2288C1.04105 24.9278 1.44409 24.7615 1.87061 24.7681H6.29991C6.86353 24.7681 7.37138 25.0497 7.66524 25.5232L9.35703 24.8432V18.0088C8.5061 17.7251 7.91426 16.9059 7.91426 16.0065V11.4658C7.91426 10.3043 8.85884 9.35929 10.0199 9.35929H14.6228C12.7494 8.5085 11.6406 7.10103 11.572 5.47558C11.5166 4.07561 12.2878 2.80538 13.5367 2.23959C14.3171 1.88476 16.4215 1.33784 19.1013 3.91661C20.2944 5.07199 21.2923 6.50099 21.9908 8.0538C22.6818 6.50114 23.6798 5.07222 24.8808 3.91661C27.5664 1.34018 29.667 1.88569 30.4455 2.23959C31.6921 2.81154 32.4573 4.08177 32.3946 5.47566C32.3256 7.10837 31.2173 8.51567 29.3452 9.35929H34.8746C36.0357 9.35929 36.9802 10.3043 36.9802 11.4658V16.0065C36.9802 16.9204 36.4017 17.7214 35.5375 18.0088V26.5438L36.486 26.0289C37.6716 25.3802 39.037 25.8354 39.8057 27.1356C40.477 28.2653 40.5067 29.9065 39.2395 30.7225L27.2918 38.3607C26.6114 38.796 25.9257 38.9988 25.1339 38.9988ZM7.65464 37.6331L10.7031 38.6654C11.2099 38.8421 11.6797 38.9207 12.227 38.9207H25.1339C25.9101 38.9207 26.5825 38.7218 27.2497 38.2949L39.1974 30.6569C40.4234 29.8673 40.3913 28.2738 39.7386 27.1754L39.7385 27.1753C38.9925 25.9133 37.6702 25.4701 36.5232 26.0974L35.4595 26.6749V17.952L35.4867 17.9433C36.3333 17.6742 36.9023 16.8959 36.9023 16.0066V11.4659C36.9023 10.3474 35.9927 9.43739 34.8746 9.43739H28.9653L29.143 9.36241C31.0901 8.54103 32.2469 7.12311 32.3166 5.47238C32.3778 4.11033 31.6306 2.86928 30.4131 2.31074C29.649 1.96332 27.5859 1.42975 24.9347 3.97301C23.7204 5.14143 22.7148 6.59133 22.0267 8.16576L21.9913 8.24705L21.9554 8.16591C21.2593 6.5911 20.2537 5.14119 19.0472 3.97294C16.4018 1.42733 14.3349 1.96262 13.5689 2.31082C12.349 2.86343 11.5957 4.10448 11.6499 5.47254C11.7193 7.11523 12.8761 8.53315 14.8236 9.36249L14.9995 9.43739H10.0199C8.90189 9.43739 7.99224 10.3474 7.99224 11.4659V16.0066C7.99224 16.882 8.57434 17.6784 9.4078 17.9433L9.43501 17.952V24.8959L7.63264 25.6204L7.61556 25.5916C7.33879 25.1249 6.847 24.8462 6.29991 24.8462H1.87022C1.4632 24.8396 1.08106 24.998 0.79235 25.2842C0.501768 25.5724 0.341659 25.9571 0.341659 26.3676V36.908C0.341659 37.7512 1.02733 38.4372 1.87022 38.4372H6.30771C6.85401 38.4372 7.36405 38.1397 7.63865 37.661L7.65464 37.6331ZM25.1339 37.7584H12.2348C11.818 37.7584 11.4738 37.7017 11.0836 37.569L7.83627 36.4678V26.7937L11.6587 25.2547C12.2938 25.0006 12.9189 25.0354 13.5167 25.358L17.2209 27.3318C17.7367 27.6055 18.2464 27.7329 18.8247 27.7329H24.6504C25.2489 27.7329 25.7442 28.1053 25.9123 28.6816C26.0807 29.2593 25.8629 29.8401 25.3576 30.161L24.1334 30.949C23.7956 31.169 23.4594 31.2672 23.0439 31.2672H17.5613C17.2388 31.2672 16.9764 31.5297 16.9764 31.8523C16.9764 32.175 17.2388 32.4375 17.5613 32.4375H26.1478C26.9304 32.4375 27.6333 32.2555 28.3597 31.8647L37.0707 27.1213C38.009 26.6063 38.6516 27.6474 38.7218 27.7679C39.03 28.2689 39.2615 29.2291 38.5687 29.6694L26.6211 37.3152C26.1375 37.6218 25.6789 37.7584 25.1339 37.7584ZM7.91426 36.4119L11.1086 37.4951C11.4953 37.6268 11.8216 37.6804 12.2347 37.6804H25.1338C25.6631 37.6804 26.1089 37.5475 26.5791 37.2495L38.5267 29.6037C39.1723 29.1934 38.9479 28.2845 38.6549 27.808C38.5462 27.6217 37.9634 26.7204 37.1081 27.1898L28.3968 31.9334C27.6583 32.3306 26.9437 32.5155 26.1477 32.5155H17.5613C17.1958 32.5155 16.8984 32.218 16.8984 31.8523C16.8984 31.4867 17.1958 31.1892 17.5613 31.1892H23.0439C23.4435 31.1892 23.7664 31.0949 24.0911 30.8834L25.3156 30.0953C25.7911 29.7933 25.9959 29.247 25.8374 28.7034C25.6793 28.1613 25.2134 27.811 24.6504 27.811H18.8247C18.2332 27.811 17.7118 27.6806 17.1843 27.4007L13.4799 25.4268C12.9032 25.1156 12.3004 25.0821 11.6878 25.3271L7.91426 26.8464V36.4119ZM6.30771 37.2669H1.87022C1.67572 37.2669 1.51147 37.1026 1.51147 36.9079V26.3675C1.51147 26.1729 1.67572 26.0086 1.87022 26.0086H6.30771C6.50221 26.0086 6.66645 26.1729 6.66645 26.3675V36.9001C6.66645 37.0989 6.50221 37.2669 6.30771 37.2669ZM1.87022 26.0867C1.72064 26.0867 1.58946 26.218 1.58946 26.3676V36.908C1.58946 37.0576 1.72064 37.1889 1.87022 37.1889H6.30771C6.45994 37.1889 6.58847 37.0568 6.58847 36.9003V26.3677C6.58847 26.218 6.45729 26.0867 6.30771 26.0867H1.87022V26.0867ZM26.1556 31.2671H25.8034L26.002 31.1406C26.9364 30.5353 27.353 29.4117 27.0384 28.3447C26.7228 27.274 25.763 26.5548 24.6504 26.5548H22.5681V18.0351H34.2897V27.3113L34.2692 27.3225L27.8119 30.8333C27.2594 31.1334 26.7486 31.2671 26.1556 31.2671ZM26.0702 31.1891H26.1556C26.7349 31.1891 27.2342 31.0582 27.7747 30.7648L34.2117 27.2651V18.1131H22.6461V26.4768H24.6504C25.798 26.4768 26.7876 27.2186 27.1132 28.3226C27.4347 29.4131 27.0158 30.5609 26.0702 31.1891ZM21.3983 26.5627H18.8247C18.4334 26.5627 18.1079 26.4818 17.7691 26.3006L14.0647 24.3267C13.1563 23.8415 12.1725 23.7882 11.2198 24.1724L10.6048 24.4202V18.0352H21.3983V26.5627ZM12.4876 23.8406C13.037 23.8406 13.5812 23.98 14.1015 24.2578L17.8059 26.2318C18.1327 26.4067 18.447 26.4846 18.8248 26.4846H21.3204V18.1132H10.6828V24.3048L11.1908 24.1001C11.6199 23.9269 12.0554 23.8406 12.4876 23.8406ZM34.8746 16.8648H22.5681V10.6681L22.6157 10.6789C23.8247 10.9538 24.5985 11.9997 25.4945 13.2107L25.548 13.2829C26.1184 14.0514 26.7079 14.846 27.4508 15.4299C27.554 15.5124 27.6769 15.5542 27.8166 15.5542C28.0007 15.5542 28.1644 15.4762 28.2774 15.3347C28.3728 15.2122 28.4167 15.0574 28.3998 14.9031C28.3917 14.8273 28.3683 14.7539 28.331 14.6873C28.2936 14.6208 28.2432 14.5626 28.1827 14.5162C27.5691 14.0236 27.0604 13.356 26.4593 12.5345L26.4334 12.4995C25.9664 11.8688 25.4835 11.2165 24.9044 10.6753L24.8322 10.6078H34.8824C35.3511 10.6078 35.7324 10.9929 35.7324 11.466V16.0068C35.7324 16.4799 35.3476 16.8648 34.8746 16.8648ZM22.6461 16.7868H34.8746C35.3046 16.7868 35.6544 16.4368 35.6544 16.0066V11.4659C35.6544 11.0357 35.3082 10.6857 34.8825 10.6857H25.0289C25.5818 11.2178 26.0464 11.8453 26.4962 12.453L26.5222 12.4881C27.12 13.3051 27.6254 13.9686 28.231 14.4548C28.2997 14.5076 28.3569 14.5737 28.3993 14.6493C28.4416 14.7249 28.4682 14.8083 28.4773 14.8944C28.4967 15.0685 28.4475 15.242 28.3388 15.3829C28.2102 15.5438 28.0249 15.6321 27.8167 15.6321C27.6588 15.6321 27.5194 15.5846 27.4023 15.4909C26.6516 14.9008 26.0587 14.1018 25.4854 13.3292L25.4318 13.257C24.557 12.0746 23.7999 11.0513 22.646 10.7662V16.7868H22.6461ZM21.4061 16.8648H10.0199C9.54693 16.8648 9.16206 16.4798 9.16206 16.0066V11.4659C9.16206 10.9927 9.54693 10.6077 10.0199 10.6077H19.1419L19.0697 10.6752C18.5025 11.2052 18.0283 11.8433 17.5699 12.4602L17.4546 12.6156C16.9148 13.3436 16.405 14.0312 15.7918 14.5157C15.6707 14.6092 15.5939 14.7453 15.5751 14.8993C15.5658 14.9763 15.5717 15.0544 15.5926 15.1292C15.6134 15.2039 15.6489 15.2738 15.6968 15.3348C15.8099 15.4762 15.9735 15.5541 16.1575 15.5541C16.2823 15.5541 16.4161 15.5085 16.5244 15.4289C17.2792 14.828 17.8774 14.022 18.4559 13.2426L18.4799 13.2104C19.3759 11.9995 20.1497 10.9537 21.3585 10.6788L21.4061 10.668V16.8648ZM10.0199 10.6858C9.5899 10.6858 9.24005 11.0358 9.24005 11.466V16.0067C9.24005 16.4369 9.5899 16.7869 10.0199 16.7869H21.3281V10.7664C20.1745 11.0514 19.4174 12.0747 18.5426 13.2569L18.5186 13.2893C17.9371 14.0727 17.3358 14.8828 16.5718 15.4911C16.4473 15.5825 16.3007 15.6323 16.1575 15.6323C15.9494 15.6323 15.764 15.5439 15.6358 15.3835C15.5815 15.3144 15.5413 15.2352 15.5176 15.1505C15.4939 15.0658 15.4871 14.9773 15.4977 14.89C15.519 14.7151 15.6064 14.5604 15.7438 14.4544C16.3485 13.9765 16.8553 13.2929 17.3919 12.5692L17.5073 12.4138C17.9486 11.8199 18.4044 11.2066 18.9453 10.6858H10.0199ZM21.1746 9.40181L21.1153 9.39838C18.9703 9.27308 17.0869 8.94049 15.6688 8.43656C13.94 7.82341 12.875 6.69908 12.8198 5.42901C12.78 4.53803 13.2573 3.7363 14.036 3.38662C14.3223 3.25493 14.6427 3.18814 14.9878 3.18814C15.9755 3.18814 17.1235 3.7711 18.2202 4.82966C19.4766 6.03264 20.5461 7.67884 21.1543 9.34611L21.1746 9.40181ZM14.9877 3.26616C14.6539 3.26616 14.3446 3.33061 14.0681 3.45762C13.3186 3.79427 12.8593 4.56666 12.8976 5.42549C12.9513 6.66272 13.9971 7.76084 15.6948 8.36299C17.0931 8.85982 18.9473 9.18945 21.0604 9.31693C20.4528 7.67962 19.4003 6.06751 18.166 4.88592C17.0839 3.84132 15.9552 3.26616 14.9877 3.26616ZM22.7921 9.40181L22.8122 9.34619C23.4052 7.69889 24.4719 6.04988 25.7385 4.82186L25.7387 4.82163C26.8619 3.753 27.9823 3.18806 28.9787 3.18806C29.3161 3.18806 29.6363 3.25485 29.9305 3.38647C30.709 3.73615 31.1865 4.53787 31.1468 5.42893C31.0912 6.70688 30.026 7.83129 28.2975 8.43648C26.8702 8.94088 24.9869 9.27355 22.8511 9.3983L22.7921 9.40181ZM25.7926 4.87804C24.5487 6.08413 23.4988 7.6992 22.9057 9.31701C25.0098 9.18999 26.8642 8.86036 28.2716 8.36299C29.9691 7.76864 31.0147 6.67052 31.0688 5.42549C31.1071 4.56666 30.6479 3.79427 29.8986 3.4577C29.6145 3.33061 29.3051 3.26608 28.9787 3.26608C28.0028 3.26616 26.901 3.82361 25.7926 4.87804Z" fill="#D9D9D9"/>
</g>
</svg>
