<svg width="41" height="41" viewBox="0 0 41 41" fill="none" xmlns="http://www.w3.org/2000/svg">
<path d="M14.1754 9.8585C14.0605 10.2122 14.1736 10.5912 14.4635 10.8243L17.0443 12.8986L16.1756 16.0939C16.0781 16.4526 16.2094 16.8257 16.5104 17.0447C16.8115 17.2631 17.2068 17.2727 17.5179 17.0691L20.2882 15.2556L23.0586 17.0692C23.203 17.1644 23.3721 17.2152 23.545 17.2155C23.7324 17.2152 23.9148 17.1554 24.066 17.0447C24.3671 16.826 24.4985 16.4526 24.4008 16.0939L23.5321 12.8987L26.1128 10.8244C26.4029 10.5915 26.516 10.2123 26.401 9.8585C26.2861 9.50459 25.9717 9.26436 25.6002 9.24639L22.293 9.08514L21.1177 5.98967C20.9858 5.64194 20.6601 5.41718 20.2882 5.41718C19.9162 5.41718 19.5905 5.64186 19.4587 5.9896L18.2833 9.08522L14.9763 9.24639C14.6047 9.26436 14.2903 9.50459 14.1754 9.8585ZM18.5813 10.3221C18.7537 10.3137 18.9199 10.2552 19.0596 10.1537C19.1993 10.0522 19.3063 9.91218 19.3675 9.75076L20.2881 7.32616L21.2087 9.751C21.27 9.91234 21.377 10.0523 21.5167 10.1537C21.6563 10.2552 21.8225 10.3137 21.9949 10.3221L24.5852 10.4484L22.5637 12.0732C22.4292 12.1813 22.3291 12.3264 22.2757 12.4906C22.2224 12.6548 22.2181 12.831 22.2634 12.9976L22.9438 15.5002L20.7739 14.0797C20.6294 13.9851 20.4605 13.9348 20.2879 13.9348C20.1152 13.9348 19.9464 13.9852 19.8019 14.0797L17.6321 15.5002L18.3125 12.9977C18.3579 12.8311 18.3536 12.6549 18.3002 12.4906C18.2469 12.3264 18.1467 12.1813 18.0121 12.0732L15.9907 10.4485L18.5813 10.3221ZM19.6631 3.38484V1.09125C19.6631 0.925486 19.7289 0.766515 19.8462 0.649305C19.9634 0.532095 20.1223 0.466248 20.2881 0.466248C20.4538 0.466248 20.6128 0.532095 20.73 0.649305C20.8472 0.766515 20.9131 0.925486 20.9131 1.09125V3.38484C20.9131 3.5506 20.8472 3.70957 20.73 3.82678C20.6128 3.94399 20.4538 4.00983 20.2881 4.00983C20.1223 4.00983 19.9634 3.94399 19.8462 3.82678C19.7289 3.70957 19.6631 3.5506 19.6631 3.38484ZM23.4692 7.0878C23.3583 6.96462 23.3008 6.80242 23.3095 6.63689C23.3182 6.47136 23.3923 6.31606 23.5154 6.20514L26.0712 3.90374C26.1322 3.84882 26.2034 3.80644 26.2808 3.77904C26.3582 3.75164 26.4402 3.73974 26.5221 3.74403C26.6041 3.74833 26.6844 3.76872 26.7585 3.80405C26.8326 3.83938 26.899 3.88896 26.9539 3.94995C27.0088 4.01094 27.0512 4.08216 27.0786 4.15953C27.106 4.2369 27.1179 4.3189 27.1136 4.40087C27.1093 4.48283 27.0889 4.56315 27.0536 4.63724C27.0183 4.71132 26.9687 4.77772 26.9077 4.83265L24.3518 7.13405C24.2372 7.23755 24.0882 7.29477 23.9338 7.29459C23.8461 7.29472 23.7595 7.27636 23.6794 7.24073C23.5994 7.2051 23.5277 7.15299 23.4692 7.0878ZM13.6222 3.94999C13.6772 3.88899 13.7436 3.8394 13.8176 3.80406C13.8917 3.76872 13.972 3.74832 14.054 3.74403C14.136 3.73973 14.218 3.75163 14.2954 3.77903C14.3727 3.80643 14.444 3.84881 14.5049 3.90374L17.0608 6.20514C17.184 6.31607 17.2581 6.47138 17.2667 6.63692C17.2754 6.80246 17.218 6.96466 17.107 7.08784C16.9961 7.21102 16.8408 7.28509 16.6753 7.29375C16.5097 7.30242 16.3475 7.24497 16.2244 7.13405L13.6685 4.83265C13.5453 4.72173 13.4712 4.56643 13.4626 4.4009C13.4539 4.23537 13.5113 4.07317 13.6222 3.94999ZM28.3062 10.8243L30.887 12.8986L30.0183 16.0939C29.9208 16.4526 30.0521 16.8257 30.3531 17.0447C30.654 17.2631 31.0493 17.2726 31.3606 17.0691L34.1309 15.2556L36.9013 17.0692C37.0457 17.1644 37.2148 17.2152 37.3877 17.2155C37.5751 17.2152 37.7575 17.1554 37.9087 17.0447C38.2097 16.8261 38.3411 16.4529 38.2435 16.0939L37.3748 12.8987L39.9555 10.8244C40.2455 10.5915 40.3586 10.2124 40.2436 9.8585C40.1287 9.50459 39.8143 9.26436 39.4429 9.24639L36.1357 9.08514L34.9605 5.98967C34.8286 5.64194 34.5029 5.41718 34.1309 5.41718C33.7589 5.41718 33.4332 5.64186 33.3013 5.9896L32.1261 9.08514L28.8191 9.24631C28.4474 9.26428 28.133 9.50459 28.0181 9.8585C27.9031 10.2123 28.0163 10.5915 28.3062 10.8243ZM32.4239 10.3221C32.5964 10.3137 32.7626 10.2552 32.9023 10.1537C33.042 10.0522 33.1491 9.91213 33.2103 9.75068L34.1309 7.32608L35.0513 9.7506C35.1126 9.91205 35.2196 10.0521 35.3593 10.1536C35.499 10.2551 35.6652 10.3136 35.8377 10.322L38.428 10.4483L36.4067 12.0729C36.2721 12.1811 36.1719 12.3261 36.1185 12.4904C36.0652 12.6546 36.0609 12.8308 36.1062 12.9975L36.7866 15.5001L34.6166 14.0796C34.4722 13.985 34.3033 13.9346 34.1307 13.9346C33.958 13.9346 33.7891 13.985 33.6447 14.0797L31.4749 15.5001L32.1553 12.9976C32.2006 12.831 32.1963 12.6548 32.143 12.4906C32.0896 12.3263 31.9895 12.1813 31.8549 12.0731L29.8335 10.4483L32.4239 10.3221ZM0.620601 10.8243L3.2014 12.8986L2.33275 16.0939C2.23525 16.4526 2.36657 16.8257 2.66758 17.0447C2.96867 17.2631 3.36389 17.2727 3.67506 17.0691L6.44538 15.2556L9.21578 17.0692C9.36017 17.1644 9.52924 17.2152 9.70217 17.2155C9.88954 17.2152 10.072 17.1554 10.2231 17.0447C10.5241 16.8261 10.6555 16.4529 10.5579 16.0939L9.68928 12.8987L12.2699 10.8244C12.5598 10.5917 12.673 10.2126 12.558 9.8581C12.4429 9.50443 12.1285 9.26428 11.7574 9.24631L8.45017 9.08506L7.27497 5.98967C7.14302 5.64194 6.81732 5.41718 6.44538 5.41718C6.07336 5.41718 5.74766 5.64186 5.61571 5.9896L4.44051 9.08514L1.13356 9.24631C0.761926 9.26428 0.447558 9.50459 0.332718 9.8581C0.217486 10.2121 0.33053 10.5914 0.620601 10.8243ZM4.73831 10.3221C4.91079 10.3137 5.07707 10.2552 5.21677 10.1537C5.35647 10.0522 5.46352 9.91213 5.52478 9.75068L6.4453 7.32608L7.36575 9.7506C7.42699 9.91205 7.53402 10.0521 7.67371 10.1536C7.8134 10.2551 7.97967 10.3136 8.15213 10.322L10.7425 10.4483L8.72118 12.0729C8.58653 12.1811 8.48637 12.3261 8.43298 12.4904C8.3796 12.6546 8.37531 12.8308 8.42064 12.9975L9.10102 15.5001L6.93107 14.0796C6.78664 13.985 6.61774 13.9346 6.44509 13.9346C6.27245 13.9346 6.10356 13.985 5.95914 14.0797L3.78935 15.5001L4.46972 12.9976C4.51504 12.831 4.51075 12.6548 4.4574 12.4906C4.40404 12.3263 4.30393 12.1813 4.16934 12.0731L2.14791 10.4483L4.73831 10.3221ZM40.1892 33.6641C39.7495 32.2439 38.8488 30.9688 37.653 30.0733C37.0883 29.6499 36.4636 29.3132 35.7994 29.0743C36.7112 28.3587 37.2987 27.2478 37.2987 26.0014C37.2987 23.8478 35.5466 22.0958 33.3931 22.0958C31.2396 22.0958 29.4875 23.8478 29.4875 26.0014C29.4875 27.2463 30.0736 28.3561 30.9836 29.0718C29.764 29.5071 28.6836 30.272 27.8562 31.3026C27.4664 30.7572 27.0191 30.2553 26.5219 29.8056C25.5219 28.9004 24.3366 28.2242 23.0486 27.824C24.4028 26.9262 25.2981 25.3889 25.2981 23.6459C25.2981 20.8834 23.0506 18.6359 20.2882 18.6359C17.5257 18.6359 15.2782 20.8834 15.2782 23.6459C15.2782 25.3889 16.1734 26.9262 17.5277 27.824C16.2396 28.2241 15.0542 28.9004 14.0543 29.8056C13.5571 30.2552 13.1098 30.7571 12.7201 31.3025C11.8927 30.2718 10.8123 29.507 9.59265 29.0716C10.5025 28.3559 11.0887 27.246 11.0887 26.0012C11.0887 23.8476 9.33664 22.0956 7.18317 22.0956C5.02963 22.0956 3.27757 23.8476 3.27757 26.0012C3.27757 27.2474 3.86505 28.3585 4.77675 29.0741C4.11259 29.313 3.48783 29.6497 2.92312 30.0731C1.72729 30.9685 0.826612 32.2437 0.386857 33.6638C0.183659 34.3197 0.296234 34.9854 0.703802 35.5384C1.11129 36.0912 1.71393 36.3956 2.40064 36.3956H11.0405V37.5235C11.0405 39.1462 12.3605 40.4662 13.9832 40.4662H26.593C28.2155 40.4662 29.5357 39.1462 29.5357 37.5235V36.3959H38.1755C38.8623 36.3959 39.465 36.0914 39.8724 35.5387C40.2799 34.9857 40.3924 34.3199 40.1892 33.6641ZM33.3931 23.3458C34.8574 23.3458 36.0487 24.5371 36.0487 26.0014C36.0487 27.4658 34.8574 28.6571 33.3931 28.6571C31.9288 28.6571 30.7375 27.4658 30.7375 26.0014C30.7375 24.5371 31.9288 23.3458 33.3931 23.3458ZM16.5282 23.6459C16.5282 21.5726 18.2149 19.8859 20.2882 19.8859C22.3614 19.8859 24.0481 21.5726 24.0481 23.6459C24.0481 25.7185 22.3625 27.4048 20.2902 27.4059H20.2861C18.2138 27.4047 16.5282 25.7185 16.5282 23.6459ZM7.18317 23.3455C8.64743 23.3455 9.83873 24.5368 9.83873 26.0011C9.83873 27.4655 8.64743 28.6568 7.18317 28.6568C5.71883 28.6568 4.52754 27.4655 4.52754 26.0011C4.52754 24.5368 5.71883 23.3455 7.18317 23.3455ZM11.1217 35.1455H2.40071C2.11306 35.1455 1.88073 35.0281 1.71003 34.7966C1.53925 34.565 1.49589 34.3083 1.58097 34.0335C2.34532 31.5652 4.59675 29.9068 7.18317 29.9068C9.13961 29.9068 10.9218 30.8521 12.018 32.4524C11.5824 33.2986 11.2801 34.207 11.1217 35.1455ZM28.2858 37.5234C28.2857 38.4568 27.5263 39.2162 26.593 39.2162H13.9832C13.0498 39.2162 12.2905 38.4568 12.2905 37.5234V35.8045C12.743 31.7273 16.1744 28.6569 20.2861 28.6559L20.2882 28.656L20.2902 28.6559C24.4017 28.657 27.8331 31.7273 28.2858 35.8045V37.5234ZM38.8662 34.797C38.6955 35.0284 38.4633 35.1458 38.1755 35.1458H29.4547C29.2962 34.2073 28.9938 33.2988 28.5583 32.4525C29.6546 30.8524 31.4367 29.9071 33.3931 29.9071C35.9795 29.9071 38.2309 31.5656 38.9953 34.0339C39.0804 34.3085 39.0369 34.5652 38.8662 34.797Z" fill="#D9D9D9"/>
</svg>
