<svg width="41" height="41" viewBox="0 0 41 41" fill="none" xmlns="http://www.w3.org/2000/svg">
<mask id="mask0_142_71" style="mask-type:alpha" maskUnits="userSpaceOnUse" x="0" y="0" width="41" height="41">
<rect x="0.263672" y="0.466248" width="40" height="40" fill="white"/>
</mask>
<g mask="url(#mask0_142_71)">
<path d="M20.3403 3.5917C19.9083 3.58857 19.5559 3.93623 19.5528 4.36748C19.5497 4.79873 19.8966 5.15107 20.3286 5.1542C20.7598 5.15732 21.1122 4.81045 21.1153 4.3792C21.1184 3.94795 20.7716 3.5956 20.3403 3.5917ZM20.3048 8.27912C17.2883 8.25771 14.8179 10.6912 14.7951 13.7068C14.7723 16.7222 17.2072 19.1937 20.2227 19.2165L20.2646 19.2166C23.2609 19.2166 25.7098 16.7904 25.7324 13.7888C25.7552 10.7736 23.3204 8.30185 20.3048 8.27912ZM20.2645 17.6542L20.2345 17.654C18.0805 17.6378 16.3413 15.8723 16.3575 13.7185C16.3737 11.5744 18.1227 9.84138 20.263 9.84138L20.293 9.84154C22.447 9.85779 24.1863 11.6233 24.17 13.7771C24.1538 15.9212 22.4048 17.6542 20.2645 17.6542ZM23.6724 4.1842C23.266 4.03998 22.8192 4.25287 22.675 4.65959C22.5309 5.06631 22.7438 5.51279 23.1504 5.65701C26.5916 6.87662 28.8849 10.154 28.8574 13.8124C28.8542 14.2438 29.2013 14.5962 29.6328 14.5995H29.6388C30.0674 14.5995 30.4166 14.2536 30.4199 13.8241C30.4524 9.50013 27.7408 5.62615 23.6724 4.1842Z" fill="#D9D9D9"/>
<path d="M25.0575 29.8758C30.2538 23.1872 33.5012 19.6993 33.5451 13.8474C33.6001 6.48467 27.6249 0.466309 20.2627 0.466309C12.9865 0.466309 7.03818 6.35912 6.98287 13.6482C6.93818 19.6587 10.2459 23.1419 15.4781 29.8747C10.273 30.6526 6.98287 32.607 6.98287 34.9976C6.98287 36.5989 8.46303 38.0358 11.1508 39.0437C13.5971 39.961 16.8336 40.4662 20.264 40.4662C23.6944 40.4662 26.9308 39.961 29.3772 39.0437C32.0649 38.0358 33.5451 36.5988 33.5451 34.9975C33.5451 32.6083 30.2579 30.6543 25.0575 29.8758ZM8.54529 13.66C8.59404 7.22803 13.8421 2.02881 20.2629 2.02881C26.7597 2.02881 32.0311 7.34037 31.9826 13.8358C31.9411 19.3931 28.4972 22.8179 22.999 29.9853C22.0183 31.2631 21.1176 32.4712 20.2651 33.653C19.4151 32.4705 18.5325 31.284 17.5371 29.9848C11.8116 22.5173 8.50295 19.3514 8.54529 13.66ZM20.264 38.9038C13.5569 38.9038 8.54529 36.8415 8.54529 34.9976C8.54529 33.6301 11.5412 31.9026 16.5786 31.3044C17.6921 32.7654 18.6683 34.0927 19.6258 35.4483C19.6979 35.5504 19.7934 35.6337 19.9043 35.6912C20.0152 35.7487 20.1383 35.7787 20.2633 35.7788H20.264C20.3888 35.7788 20.5118 35.7489 20.6227 35.6916C20.7336 35.6343 20.8291 35.5512 20.9013 35.4494C21.8497 34.1114 22.8527 32.7513 23.9567 31.3052C28.9894 31.904 31.9826 33.631 31.9826 34.9976C31.9826 36.8415 26.9711 38.9038 20.264 38.9038Z" fill="#D9D9D9"/>
</g>
</svg>
