<svg width="40" height="41" viewBox="0 0 40 41" fill="none" xmlns="http://www.w3.org/2000/svg">
<path d="M38.9504 31.3248L30.8542 25.9252C29.8268 25.2455 28.4496 25.4692 27.69 26.4392L25.3317 29.4716C25.1851 29.6649 24.9736 29.7989 24.7362 29.8488C24.4988 29.8988 24.2513 29.8614 24.0392 29.7436L23.5906 29.4963C22.1035 28.6857 20.2531 27.6764 16.525 23.9467C12.7969 20.217 11.7857 18.3651 10.9751 16.8806L10.7292 16.432C10.6098 16.2199 10.571 15.9719 10.62 15.7335C10.669 15.4951 10.8024 15.2825 10.9958 15.1347L14.0259 12.777C14.9955 12.0173 15.2194 10.6403 14.5406 9.61252L9.14135 1.5158C8.4456 0.46916 7.04971 0.154965 5.9726 0.802493L2.58709 2.83632C1.52334 3.46172 0.742933 4.47462 0.409446 5.66274C-0.80967 10.1051 0.107458 17.7718 11.4005 29.067C20.3838 38.0502 27.0715 40.4661 31.6682 40.4661C32.7261 40.4706 33.7798 40.333 34.8011 40.0568C35.9893 39.7237 37.0023 38.9432 37.6273 37.879L39.663 34.4953C40.3114 33.4179 39.9974 32.021 38.9504 31.3248ZM38.5144 33.8113L36.4834 37.197C36.0346 37.9651 35.306 38.5298 34.4503 38.7729C30.3496 39.8989 23.1854 38.9663 12.3436 28.1237C1.50186 17.2812 0.569422 10.1171 1.69527 6.01545C1.93871 5.15861 2.50405 4.42911 3.273 3.97959L6.65852 1.94842C7.12587 1.66719 7.73172 1.80351 8.03363 2.25769L10.9666 6.66134L13.4282 10.3537C13.723 10.7995 13.6262 11.3971 13.2056 11.727L10.1747 14.0847C9.25235 14.7901 8.98895 16.0663 9.55684 17.0792L9.79751 17.5165C10.6494 19.0791 11.7085 21.0229 15.5753 24.8893C19.4421 28.7556 21.3852 29.8149 22.9469 30.6668L23.3848 30.9081C24.3975 31.476 25.6737 31.2126 26.379 30.2902L28.7366 27.2591C29.0666 26.8388 29.6639 26.742 30.1098 27.0365L38.2052 32.4361C38.6597 32.7378 38.796 33.344 38.5144 33.8113ZM22.6654 7.13536C28.9208 7.14232 33.9901 12.212 33.9971 18.4678C33.9971 18.836 34.2955 19.1344 34.6637 19.1344C35.0318 19.1344 35.3302 18.836 35.3302 18.4678C35.3225 11.476 29.6568 5.80984 22.6654 5.80219C22.2973 5.80219 21.9989 6.1006 21.9989 6.46877C21.9989 6.83695 22.2973 7.13536 22.6654 7.13536Z" fill="#D9D9D9"/>
<path d="M22.6636 11.1351C26.7111 11.1398 29.9911 14.42 29.9959 18.4679C29.9959 18.6446 30.0661 18.8142 30.1911 18.9392C30.3161 19.0642 30.4856 19.1344 30.6624 19.1344C30.8392 19.1344 31.0087 19.0642 31.1337 18.9392C31.2587 18.8142 31.329 18.6446 31.329 18.4679C31.3234 13.684 27.447 9.80735 22.6636 9.80188C22.2955 9.80188 21.9971 10.1003 21.9971 10.4685C21.9971 10.8366 22.2955 11.1351 22.6636 11.1351Z" fill="#D9D9D9"/>
<path d="M22.6636 15.1346C24.5033 15.1368 25.9942 16.6278 25.9965 18.4677C25.9965 18.6445 26.0667 18.8141 26.1917 18.9391C26.3167 19.0641 26.4862 19.1343 26.663 19.1343C26.8398 19.1343 27.0093 19.0641 27.1343 18.9391C27.2593 18.8141 27.3296 18.6445 27.3296 18.4677C27.3266 15.8918 25.2393 13.8043 22.6636 13.8015C22.2955 13.8015 21.9971 14.0999 21.9971 14.468C21.9971 14.8362 22.2955 15.1346 22.6636 15.1346Z" fill="#D9D9D9"/>
</svg>
